<svg xmlns="http://www.w3.org/2000/svg" width="126.358" height="126.071" viewBox="0 0 126.358 126.071">
    <defs>
        <style>
            .prefix__cls-8{fill:#868491}.prefix__cls-9{fill:#b4b6bc}
        </style>
    </defs>
    <g id="prefix__Group_27744" data-name="Group 27744" transform="translate(2146.192 -1059.893)">
        <g id="prefix__Group_27743" data-name="Group 27743" transform="translate(126.127)">
            <rect id="prefix__Rectangle_1408" width="92.738" height="92.738" data-name="Rectangle 1408" rx="10" transform="rotate(-29 999.57 4943.69)" style="opacity:.2;fill:#ff673b"/>
            <path id="prefix__Path_47841" d="M165.809 489.479a10.125 10.125 0 0 1-7.3-3.091L110.5 436.722a10.152 10.152 0 0 1 .244-14.353l49.665-48.007a10.152 10.152 0 0 1 14.353.244l48.008 49.664a10.164 10.164 0 0 1-.245 14.354l-49.665 48.007a10.124 10.124 0 0 1-7.051 2.848zm1.653-115.94a8.066 8.066 0 0 0-5.641 2.282l-49.665 48.007a8.119 8.119 0 0 0-.195 11.482l48.007 49.666a8.131 8.131 0 0 0 11.483.195l49.666-48.007a8.13 8.13 0 0 0 .194-11.483L173.3 376.016a8.067 8.067 0 0 0-5.7-2.476z" data-name="Path 47841" transform="translate(-2379.502 690.665)" style="opacity:.3;fill:#ff673b"/>
        </g>
        <g id="prefix__open-book_1_" data-name="open-book (1)" transform="translate(-2116.827 1097.233)">
            <g id="prefix__Group_25916" data-name="Group 25916" transform="translate(0 9.414)">
                <path id="prefix__Path_20660" d="M92.3 116.07H4.693A4.7 4.7 0 0 0 0 120.763v51.625a4.7 4.7 0 0 0 4.693 4.693H92.3a4.7 4.7 0 0 0 4.693-4.693v-51.625a4.7 4.7 0 0 0-4.693-4.693z" data-name="Path 20660" transform="translate(0 -116.07)" style="fill:#ff4f19"/>
            </g>
            <g id="prefix__Group_25917" data-name="Group 25917" transform="translate(43.803 62.603)">
                <path id="prefix__Rectangle_4468" d="M0 0H9.386V7.822H0z" data-name="Rectangle 4468" style="fill:#e3001e"/>
            </g>
            <g id="prefix__Group_25918" data-name="Group 25918" transform="translate(6.3 53.217)">
                <path id="prefix__Path_20661" d="M116.7 344.763v4.693a1.564 1.564 0 0 1-1.564 1.564H33.783a1.564 1.564 0 0 1-1.564-1.564v-4.693l9.344-4.693 37.545 1.564 31.292-1.564z" data-name="Path 20661" transform="translate(-32.219 -340.07)" style="fill:#e6be8a"/>
            </g>
            <g id="prefix__Group_25919" data-name="Group 25919" transform="translate(6.3)">
                <path id="prefix__Path_20662" d="M34.414 128a49.6 49.6 0 0 1 40.044.969V72.65a49.6 49.6 0 0 0-41.309-.426 1.585 1.585 0 0 0-.929 1.446v52.9a1.57 1.57 0 0 0 2.194 1.43z" data-name="Path 20662" transform="translate(-32.219 -67.93)" style="fill:#ffebb7"/>
            </g>
            <g id="prefix__Group_25920" data-name="Group 25920" transform="translate(48.539)">
                <path id="prefix__Path_20663" d="M248.219 128.968a49.6 49.6 0 0 1 40.044-.968 1.57 1.57 0 0 0 2.195-1.43v-52.9a1.585 1.585 0 0 0-.929-1.446 49.6 49.6 0 0 0-41.309.426z" data-name="Path 20663" transform="translate(-248.219 -67.93)" style="fill:#ffd788"/>
            </g>
            <g id="prefix__Group_25922" data-name="Group 25922" transform="translate(53.232 46.467)">
                <g id="prefix__Group_25921" data-name="Group 25921">
                    <path id="prefix__Path_20664" d="M273.783 309.91a1.565 1.565 0 0 1-.469-3.058c1.583-.5 3.211-.922 4.841-1.263a1.564 1.564 0 0 1 .642 3.062c-1.531.321-3.06.72-4.545 1.187a1.574 1.574 0 0 1-.469.072z" class="prefix__cls-8" data-name="Path 20664" transform="translate(-272.218 -305.555)"/>
                </g>
            </g>
            <g id="prefix__Group_25924" data-name="Group 25924" transform="translate(64.183 45.412)">
                <g id="prefix__Group_25923" data-name="Group 25923">
                    <path id="prefix__Path_20665" d="M348.555 305.569a1.57 1.57 0 0 1-.469-.073 47.761 47.761 0 0 0-18.18-2.058 1.565 1.565 0 0 1-.247-3.12 50.973 50.973 0 0 1 19.365 2.192 1.565 1.565 0 0 1-.469 3.058z" class="prefix__cls-8" data-name="Path 20665" transform="translate(-328.218 -300.159)"/>
                </g>
            </g>
            <g id="prefix__Group_25926" data-name="Group 25926" transform="translate(53.232 39.126)">
                <g id="prefix__Group_25925" data-name="Group 25925">
                    <path id="prefix__Path_20666" d="M303.507 273.432a1.569 1.569 0 0 1-.469-.073 47.8 47.8 0 0 0-28.785 0 1.564 1.564 0 1 1-.938-2.985 50.921 50.921 0 0 1 30.661 0 1.565 1.565 0 0 1-.469 3.058z" class="prefix__cls-8" data-name="Path 20666" transform="translate(-272.219 -268.012)"/>
                </g>
            </g>
            <g id="prefix__Group_25928" data-name="Group 25928" transform="translate(53.232 32.898)">
                <g id="prefix__Group_25927" data-name="Group 25927">
                    <path id="prefix__Path_20667" d="M273.783 241.575a1.565 1.565 0 0 1-.469-3.058 51.1 51.1 0 0 1 17.752-2.294 1.565 1.565 0 0 1-.15 3.126 47.931 47.931 0 0 0-16.664 2.153 1.574 1.574 0 0 1-.469.073z" class="prefix__cls-8" data-name="Path 20667" transform="translate(-272.218 -236.166)"/>
                </g>
            </g>
            <g id="prefix__Group_25930" data-name="Group 25930" transform="translate(76.697 33.649)">
                <g id="prefix__Group_25929" data-name="Group 25929">
                    <path id="prefix__Path_20668" d="M400.035 244.663a1.57 1.57 0 0 1-.469-.073 48.2 48.2 0 0 0-6.062-1.48 1.565 1.565 0 0 1 .544-3.081 51.453 51.453 0 0 1 6.456 1.576 1.565 1.565 0 0 1-.469 3.058z" class="prefix__cls-8" data-name="Path 20668" transform="translate(-392.212 -240.005)"/>
                </g>
            </g>
            <g id="prefix__Group_25932" data-name="Group 25932" transform="translate(53.232 26.611)">
                <g id="prefix__Group_25931" data-name="Group 25931">
                    <path id="prefix__Path_20669" d="M303.507 209.432a1.569 1.569 0 0 1-.469-.073 47.8 47.8 0 0 0-28.785 0 1.564 1.564 0 0 1-.938-2.985 50.921 50.921 0 0 1 30.661 0 1.565 1.565 0 0 1-.469 3.058z" class="prefix__cls-8" data-name="Path 20669" transform="translate(-272.219 -204.012)"/>
                </g>
            </g>
            <g id="prefix__Group_25934" data-name="Group 25934" transform="translate(53.232 20.667)">
                <g id="prefix__Group_25933" data-name="Group 25933">
                    <path id="prefix__Path_20670" d="M273.783 178.722a1.565 1.565 0 0 1-.469-3.058 51.227 51.227 0 0 1 9.686-2.038 1.564 1.564 0 1 1 .345 3.109 48.138 48.138 0 0 0-9.091 1.914 1.575 1.575 0 0 1-.471.073z" class="prefix__cls-8" data-name="Path 20670" transform="translate(-272.218 -173.615)"/>
                </g>
            </g>
            <g id="prefix__Group_25936" data-name="Group 25936" transform="translate(68.877 20.368)">
                <g id="prefix__Group_25935" data-name="Group 25935">
                    <path id="prefix__Path_20671" d="M367.869 177.495a1.568 1.568 0 0 1-.469-.073 47.95 47.95 0 0 0-13.633-2.2 1.565 1.565 0 1 1 .049-3.129 51.119 51.119 0 0 1 14.523 2.345 1.565 1.565 0 0 1-.469 3.058z" class="prefix__cls-8" data-name="Path 20671" transform="translate(-352.226 -172.089)"/>
                </g>
            </g>
            <g id="prefix__Group_25938" data-name="Group 25938" transform="translate(53.232 14.121)">
                <g id="prefix__Group_25937" data-name="Group 25937">
                    <path id="prefix__Path_20672" d="M273.783 145.555a1.565 1.565 0 0 1-.469-3.058 50.819 50.819 0 0 1 20.979-2.038 1.564 1.564 0 0 1 1.383 1.727 1.544 1.544 0 0 1-1.728 1.382 47.749 47.749 0 0 0-19.7 1.914 1.568 1.568 0 0 1-.465.073z" class="prefix__cls-8" data-name="Path 20672" transform="translate(-272.218 -140.142)"/>
                </g>
            </g>
            <g id="prefix__Group_25940" data-name="Group 25940" transform="translate(79.826 15.533)">
                <g id="prefix__Group_25939" data-name="Group 25939">
                    <path id="prefix__Path_20673" d="M412.91 151.364a1.569 1.569 0 0 1-.469-.073c-.993-.312-2.012-.6-3.031-.844a1.565 1.565 0 0 1 .743-3.04c1.083.264 2.168.567 3.227.9a1.565 1.565 0 0 1-.469 3.058z" class="prefix__cls-8" data-name="Path 20673" transform="translate(-408.216 -147.363)"/>
                </g>
            </g>
            <g id="prefix__Group_25942" data-name="Group 25942" transform="translate(53.232 9.257)">
                <g id="prefix__Group_25941" data-name="Group 25941">
                    <path id="prefix__Path_20674" d="M273.783 119.271a1.565 1.565 0 0 1-.468-3.058c1.076-.338 2.16-.639 3.225-.9a1.564 1.564 0 1 1 .739 3.04c-1 .243-2.018.526-3.029.843a1.567 1.567 0 0 1-.467.075z" class="prefix__cls-8" data-name="Path 20674" transform="translate(-272.218 -115.27)"/>
                </g>
            </g>
            <g id="prefix__Group_25944" data-name="Group 25944" transform="translate(62.618 7.845)">
                <g id="prefix__Group_25943" data-name="Group 25943">
                    <path id="prefix__Path_20675" d="M342.119 113.462a1.569 1.569 0 0 1-.469-.073 47.762 47.762 0 0 0-19.7-1.914 1.564 1.564 0 1 1-.345-3.109 50.826 50.826 0 0 1 20.979 2.038 1.565 1.565 0 0 1-.469 3.058z" class="prefix__cls-8" data-name="Path 20675" transform="translate(-320.217 -108.049)"/>
                </g>
            </g>
            <g id="prefix__Group_25946" data-name="Group 25946" transform="translate(10.993 46.467)">
                <g id="prefix__Group_25945" data-name="Group 25945">
                    <path id="prefix__Path_20676" d="M57.783 309.91a1.565 1.565 0 0 1-.469-3.058c1.583-.5 3.211-.922 4.841-1.263a1.564 1.564 0 0 1 .642 3.062c-1.531.321-3.06.72-4.545 1.187a1.575 1.575 0 0 1-.469.072z" class="prefix__cls-9" data-name="Path 20676" transform="translate(-56.218 -305.555)"/>
                </g>
            </g>
            <g id="prefix__Group_25948" data-name="Group 25948" transform="translate(21.944 45.412)">
                <g id="prefix__Group_25947" data-name="Group 25947">
                    <path id="prefix__Path_20677" d="M132.555 305.569a1.57 1.57 0 0 1-.469-.073 47.758 47.758 0 0 0-18.18-2.058 1.565 1.565 0 0 1-.247-3.12 50.977 50.977 0 0 1 19.365 2.192 1.565 1.565 0 0 1-.469 3.058z" class="prefix__cls-9" data-name="Path 20677" transform="translate(-112.218 -300.159)"/>
                </g>
            </g>
            <g id="prefix__Group_25950" data-name="Group 25950" transform="translate(10.994 39.126)">
                <g id="prefix__Group_25949" data-name="Group 25949">
                    <path id="prefix__Path_20678" d="M87.507 273.432a1.569 1.569 0 0 1-.469-.073 47.8 47.8 0 0 0-28.785 0 1.564 1.564 0 0 1-.938-2.985 50.922 50.922 0 0 1 30.661 0 1.565 1.565 0 0 1-.469 3.058z" class="prefix__cls-9" data-name="Path 20678" transform="translate(-56.219 -268.012)"/>
                </g>
            </g>
            <g id="prefix__Group_25952" data-name="Group 25952" transform="translate(10.993 32.898)">
                <g id="prefix__Group_25951" data-name="Group 25951">
                    <path id="prefix__Path_20679" d="M57.783 241.575a1.565 1.565 0 0 1-.469-3.058 51.114 51.114 0 0 1 17.752-2.294 1.565 1.565 0 0 1-.15 3.126 47.926 47.926 0 0 0-16.665 2.151 1.574 1.574 0 0 1-.468.075z" class="prefix__cls-9" data-name="Path 20679" transform="translate(-56.218 -236.166)"/>
                </g>
            </g>
            <g id="prefix__Group_25954" data-name="Group 25954" transform="translate(34.458 33.649)">
                <g id="prefix__Group_25953" data-name="Group 25953">
                    <path id="prefix__Path_20680" d="M184.035 244.663a1.569 1.569 0 0 1-.469-.073 48.2 48.2 0 0 0-6.062-1.48 1.565 1.565 0 0 1 .544-3.081 51.454 51.454 0 0 1 6.456 1.576 1.565 1.565 0 0 1-.469 3.058z" class="prefix__cls-9" data-name="Path 20680" transform="translate(-176.212 -240.005)"/>
                </g>
            </g>
            <g id="prefix__Group_25956" data-name="Group 25956" transform="translate(10.993 26.623)">
                <g id="prefix__Group_25955" data-name="Group 25955">
                    <path id="prefix__Path_20681" d="M57.783 209.483a1.565 1.565 0 0 1-.469-3.058 51.176 51.176 0 0 1 27.433-.9 1.564 1.564 0 1 1-.739 3.04 48.013 48.013 0 0 0-25.756.843 1.576 1.576 0 0 1-.469.075z" class="prefix__cls-9" data-name="Path 20681" transform="translate(-56.218 -204.075)"/>
                </g>
            </g>
            <g id="prefix__Group_25958" data-name="Group 25958" transform="translate(10.993 20.667)">
                <g id="prefix__Group_25957" data-name="Group 25957">
                    <path id="prefix__Path_20682" d="M57.783 178.722a1.565 1.565 0 0 1-.469-3.058A51.227 51.227 0 0 1 67 173.626a1.564 1.564 0 1 1 .345 3.109 48.137 48.137 0 0 0-9.091 1.914 1.576 1.576 0 0 1-.471.073z" class="prefix__cls-9" data-name="Path 20682" transform="translate(-56.218 -173.615)"/>
                </g>
            </g>
            <g id="prefix__Group_25960" data-name="Group 25960" transform="translate(26.639 20.368)">
                <g id="prefix__Group_25959" data-name="Group 25959">
                    <path id="prefix__Path_20683" d="M148.741 176.622a1.582 1.582 0 0 1-.371-.044 48.051 48.051 0 0 0-10.6-1.358 1.564 1.564 0 0 1-1.54-1.589 1.521 1.521 0 0 1 1.589-1.54 51.241 51.241 0 0 1 11.295 1.447 1.564 1.564 0 0 1-.368 3.085z" class="prefix__cls-9" data-name="Path 20683" transform="translate(-136.226 -172.088)"/>
                </g>
            </g>
            <g id="prefix__Group_25962" data-name="Group 25962" transform="translate(10.993 14.121)">
                <g id="prefix__Group_25961" data-name="Group 25961">
                    <path id="prefix__Path_20684" d="M57.783 145.555a1.565 1.565 0 0 1-.469-3.058 50.824 50.824 0 0 1 20.979-2.038 1.564 1.564 0 0 1 1.383 1.727 1.547 1.547 0 0 1-1.728 1.382 47.749 47.749 0 0 0-19.7 1.914 1.568 1.568 0 0 1-.465.073z" class="prefix__cls-9" data-name="Path 20684" transform="translate(-56.218 -140.142)"/>
                </g>
            </g>
            <g id="prefix__Group_25964" data-name="Group 25964" transform="translate(10.993 9.257)">
                <g id="prefix__Group_25963" data-name="Group 25963">
                    <path id="prefix__Path_20685" d="M57.783 119.271a1.565 1.565 0 0 1-.468-3.058c1.076-.338 2.16-.639 3.225-.9a1.564 1.564 0 1 1 .739 3.04c-1 .243-2.018.526-3.029.843a1.567 1.567 0 0 1-.467.075z" class="prefix__cls-9" data-name="Path 20685" transform="translate(-56.218 -115.27)"/>
                </g>
            </g>
            <g id="prefix__Group_25966" data-name="Group 25966" transform="translate(20.38 7.848)">
                <g id="prefix__Group_25965" data-name="Group 25965">
                    <path id="prefix__Path_20686" d="M122.992 112.6a1.582 1.582 0 0 1-.371-.044 47.922 47.922 0 0 0-16.666-1.07 1.564 1.564 0 1 1-.345-3.109 50.99 50.99 0 0 1 17.751 1.139 1.564 1.564 0 0 1-.368 3.085z" class="prefix__cls-9" data-name="Path 20686" transform="translate(-104.217 -108.06)"/>
                </g>
            </g>
            <g id="prefix__Group_25967" data-name="Group 25967" transform="translate(39.148 .761)">
                <path id="prefix__Path_20687" d="M200.2 100.029a.782.782 0 0 0 1.216.651l3.477-2.318 3.477 2.318a.782.782 0 0 0 1.216-.651V75.912a1.576 1.576 0 0 0-.925-1.439 49.53 49.53 0 0 0-7.482-2.624.789.789 0 0 0-.983.766z" data-name="Path 20687" transform="translate(-200.197 -71.823)" style="fill:#5d647f"/>
            </g>
        </g>
    </g>
</svg>
