<svg xmlns="http://www.w3.org/2000/svg" xmlns:xlink="http://www.w3.org/1999/xlink" width="132.047" height="129.66" viewBox="0 0 132.047 129.66">
    <defs>
        <linearGradient id="prefix__linear-gradient" x1=".533" x2=".53" y1="-5.426" y2="-4.847" gradientUnits="objectBoundingBox">
            <stop offset="0" stop-color="#f3dcfb"/>
            <stop offset="1" stop-color="#679fe4"/>
        </linearGradient>
        <linearGradient id="prefix__linear-gradient-2" x1=".44" x2=".57" y1="-4.388" y2="6.576" xlink:href="#prefix__linear-gradient"/>
        <linearGradient id="prefix__linear-gradient-3" x1="-.682" x2="1.226" y1="-.047" y2=".836" gradientUnits="objectBoundingBox">
            <stop offset="0" stop-color="#005c97"/>
            <stop offset="1" stop-color="#363795"/>
        </linearGradient>
        <linearGradient id="prefix__linear-gradient-4" x1="2.92" x2="6.8" y1="1.098" y2="2.045" xlink:href="#prefix__linear-gradient-3"/>
        <linearGradient id="prefix__linear-gradient-5" x1="-.683" x2="1.226" y1="-.047" y2=".836" xlink:href="#prefix__linear-gradient-3"/>
        <linearGradient id="prefix__linear-gradient-6" x1="2.92" x2="6.8" y1="1.098" y2="2.045" xlink:href="#prefix__linear-gradient-3"/>
        <linearGradient id="prefix__linear-gradient-7" x1="-.682" x2="1.226" y1="-.047" y2=".836" xlink:href="#prefix__linear-gradient-3"/>
        <linearGradient id="prefix__linear-gradient-8" x1="2.92" x2="6.8" y1="1.098" y2="2.045" xlink:href="#prefix__linear-gradient-3"/>
        <linearGradient id="prefix__linear-gradient-13" x1="-.682" x2="1.227" y1="-.047" y2=".836" xlink:href="#prefix__linear-gradient-3"/>
        <linearGradient id="prefix__linear-gradient-14" x1="2.92" x2="6.8" y1="1.098" y2="2.045" xlink:href="#prefix__linear-gradient-3"/>
        <linearGradient id="prefix__linear-gradient-15" x1="-.682" x2="1.226" y1="-.047" y2=".836" xlink:href="#prefix__linear-gradient-3"/>
        <linearGradient id="prefix__linear-gradient-16" x1="2.92" x2="6.8" y1="1.098" y2="2.045" xlink:href="#prefix__linear-gradient-3"/>
        <linearGradient id="prefix__linear-gradient-19" x1="-.683" x2="1.226" y1="-.047" y2=".836" xlink:href="#prefix__linear-gradient-3"/>
        <linearGradient id="prefix__linear-gradient-20" x1="2.92" x2="6.8" y1="1.098" y2="2.045" xlink:href="#prefix__linear-gradient-3"/>
        <linearGradient id="prefix__linear-gradient-22" x1="2.92" x2="6.8" y1="1.098" y2="2.045" xlink:href="#prefix__linear-gradient-3"/>
        <linearGradient id="prefix__linear-gradient-23" x1="-.682" x2="1.226" y1="-.047" y2=".836" xlink:href="#prefix__linear-gradient-3"/>
        <linearGradient id="prefix__linear-gradient-24" x1="2.92" x2="6.8" y1="1.098" y2="2.045" xlink:href="#prefix__linear-gradient-3"/>
        <linearGradient id="prefix__linear-gradient-25" x1="-.682" x2="1.227" y1="-.047" y2=".836" xlink:href="#prefix__linear-gradient-3"/>
        <linearGradient id="prefix__linear-gradient-27" x1="-.682" x2="1.226" y1="-.047" y2=".836" xlink:href="#prefix__linear-gradient-3"/>
        <linearGradient id="prefix__linear-gradient-29" x1="-.683" x2="1.226" y1="-.047" y2=".836" xlink:href="#prefix__linear-gradient-3"/>
        <linearGradient id="prefix__linear-gradient-31" x1="-.682" x2="1.226" y1="-.047" y2=".836" xlink:href="#prefix__linear-gradient-3"/>
        <linearGradient id="prefix__linear-gradient-32" x1="2.92" x2="6.8" y1="1.098" y2="2.045" xlink:href="#prefix__linear-gradient-3"/>
        <linearGradient id="prefix__linear-gradient-34" x1="2.92" x2="6.8" y1="1.098" y2="2.045" xlink:href="#prefix__linear-gradient-3"/>
        <linearGradient id="prefix__linear-gradient-37" x1="-.682" x2="1.227" y1="-.047" y2=".836" xlink:href="#prefix__linear-gradient-3"/>
        <linearGradient id="prefix__linear-gradient-39" x1=".5" x2=".5" y1="-.44" y2="1.193" xlink:href="#prefix__linear-gradient"/>
        <linearGradient id="prefix__linear-gradient-40" x1="-5.546" x2="24.894" y1=".44" y2=".745" xlink:href="#prefix__linear-gradient"/>
        <linearGradient id="prefix__linear-gradient-41" x1=".5" x2=".5" y1="-.44" y2="1.193" xlink:href="#prefix__linear-gradient"/>
        <linearGradient id="prefix__linear-gradient-42" x1="-5.546" x2="24.894" y1=".44" y2=".745" xlink:href="#prefix__linear-gradient"/>
        <linearGradient id="prefix__linear-gradient-46" x1="2.92" x2="6.8" y1="1.098" y2="2.045" xlink:href="#prefix__linear-gradient-3"/>
        <linearGradient id="prefix__linear-gradient-48" x1="2.92" x2="6.8" y1="1.098" y2="2.045" xlink:href="#prefix__linear-gradient-3"/>
        <style>
            .prefix__cls-6{fill:#2f306b}.prefix__cls-7{fill:url(#prefix__linear-gradient-3)}.prefix__cls-8{fill:url(#prefix__linear-gradient-4)}.prefix__cls-9{fill:url(#prefix__linear-gradient-5)}.prefix__cls-10{fill:url(#prefix__linear-gradient-6)}.prefix__cls-14{fill:url(#prefix__linear-gradient-14)}.prefix__cls-15{fill:url(#prefix__linear-gradient-15)}.prefix__cls-16{fill:url(#prefix__linear-gradient-16)}.prefix__cls-18{fill:url(#prefix__linear-gradient-20)}.prefix__cls-19{fill:url(#prefix__linear-gradient-22)}.prefix__cls-23{fill:url(#prefix__linear-gradient-27)}.prefix__cls-24{fill:url(#prefix__linear-gradient-29)}.prefix__cls-25{fill:url(#prefix__linear-gradient-31)}.prefix__cls-28{fill:url(#prefix__linear-gradient-37)}
        </style>
    </defs>
    <g id="prefix__Group_27756" data-name="Group 27756" transform="translate(2310 -386)">
        <g id="prefix__Group_27737" data-name="Group 27737" transform="translate(-209 27)">
            <rect id="prefix__Rectangle_1408" width="91.36" height="91.36" data-name="Rectangle 1408" rx="10" transform="rotate(-29 -265.15 4255.799)" style="opacity:.2;fill:#3f55f1"/>
            <rect id="prefix__Rectangle_5554" width="88.048" height="88.048" data-name="Rectangle 5554" rx="10" transform="rotate(-44.028 -530.857 2808.348)" style="fill:none"/>
            <path id="prefix__Path_47841" d="M164.945 487.726a9.974 9.974 0 0 1-7.192-3.045l-47.294-48.928a10 10 0 0 1 .24-14.14l48.927-47.294a10 10 0 0 1 14.14.24l47.295 48.926a10.013 10.013 0 0 1-.241 14.141l-48.927 47.294a9.973 9.973 0 0 1-6.948 2.806zm1.628-114.217a7.946 7.946 0 0 0-5.557 2.248l-48.927 47.294a8 8 0 0 0-.192 11.311l47.294 48.928a8.01 8.01 0 0 0 11.312.192l48.928-47.294a8.009 8.009 0 0 0 .191-11.312l-47.294-48.927a7.947 7.947 0 0 0-5.616-2.439z" data-name="Path 47841" transform="translate(-2204.509 -8.369)" style="opacity:.3;fill:#3f55f1"/>
        </g>
        <g id="prefix__abacus" transform="translate(-2280.437 416.109)">
            <path id="prefix__Path_20469" d="M170.808 420.654H68.33v-.819a6.544 6.544 0 0 1 6.544-6.544h89.392a6.544 6.544 0 0 1 6.544 6.544v.819z" data-name="Path 20469" transform="translate(-68.327 -321.105)"/>
            <path id="prefix__Path_20470" d="M75.883 414.444h89.392a6.512 6.512 0 0 1 4.347 1.655 6.532 6.532 0 0 0-5.365-2.8H74.864a6.544 6.544 0 0 0-6.544 6.544v.819h1.027a6.547 6.547 0 0 1 6.536-6.22z" data-name="Path 20470" transform="translate(-68.32 -321.112)"/>
            <path id="prefix__Path_20471" d="M108.46 131.85h80.565v1.365H108.46z" class="prefix__cls-6" data-name="Path 20471" transform="translate(-97.501 -116.506)"/>
            <path id="prefix__Path_20472" d="M108.46 207.36h80.565v1.365H108.46z" class="prefix__cls-6" data-name="Path 20472" transform="translate(-97.501 -171.399)"/>
            <path id="prefix__Path_20473" d="M122.289 196.41h-.77a3.068 3.068 0 0 1-3.069-3.069V183.3a3.068 3.068 0 0 1 3.069-3.069h.77a3.068 3.068 0 0 1 3.069 3.069v10.042a3.068 3.068 0 0 1-3.069 3.068z" class="prefix__cls-7" data-name="Path 20473" transform="translate(-104.763 -151.677)"/>
            <path id="prefix__Path_20474" d="M118.961 193.859v-10.042a3.068 3.068 0 0 1 3.069-3.069h.77a3.048 3.048 0 0 1 1.9.661 3.058 3.058 0 0 0-2.408-1.169h-.77a3.068 3.068 0 0 0-3.069 3.069v10.042a3.066 3.066 0 0 0 1.169 2.408 3.082 3.082 0 0 1-.661-1.9z" class="prefix__cls-8" data-name="Path 20474" transform="translate(-104.763 -151.684)"/>
            <path id="prefix__Path_20475" d="M147.589 196.41h-.77a3.068 3.068 0 0 1-3.069-3.069V183.3a3.068 3.068 0 0 1 3.069-3.069h.77a3.068 3.068 0 0 1 3.069 3.069v10.042a3.072 3.072 0 0 1-3.069 3.068z" class="prefix__cls-9" data-name="Path 20475" transform="translate(-123.156 -151.677)"/>
            <path id="prefix__Path_20476" d="M144.251 193.859v-10.042a3.068 3.068 0 0 1 3.069-3.069h.77a3.048 3.048 0 0 1 1.9.661 3.058 3.058 0 0 0-2.408-1.169h-.77a3.068 3.068 0 0 0-3.069 3.069v10.042a3.066 3.066 0 0 0 1.169 2.408 3.082 3.082 0 0 1-.661-1.9z" class="prefix__cls-10" data-name="Path 20476" transform="translate(-123.148 -151.684)"/>
            <path id="prefix__Path_20477" d="M229.159 196.41h-.77a3.068 3.068 0 0 1-3.069-3.069V183.3a3.068 3.068 0 0 1 3.069-3.069h.77a3.068 3.068 0 0 1 3.069 3.069v10.042a3.068 3.068 0 0 1-3.069 3.068z" data-name="Path 20477" transform="translate(-182.455 -151.677)"/>
            <path id="prefix__Path_20478" d="M225.831 193.859v-10.042a3.068 3.068 0 0 1 3.069-3.069h.77a3.048 3.048 0 0 1 1.9.661 3.058 3.058 0 0 0-2.408-1.169h-.77a3.068 3.068 0 0 0-3.069 3.069v10.042a3.066 3.066 0 0 0 1.169 2.408 3.082 3.082 0 0 1-.658-1.9z" data-name="Path 20478" transform="translate(-182.455 -151.684)"/>
            <path id="prefix__Path_20479" d="M279.749 196.41h-.77a3.068 3.068 0 0 1-3.069-3.069V183.3a3.068 3.068 0 0 1 3.069-3.069h.77a3.068 3.068 0 0 1 3.069 3.069v10.042a3.071 3.071 0 0 1-3.069 3.068z" class="prefix__cls-9" data-name="Path 20479" transform="translate(-219.232 -151.677)"/>
            <path id="prefix__Path_20480" d="M276.411 193.859v-10.042a3.068 3.068 0 0 1 3.069-3.069h.77a3.048 3.048 0 0 1 1.9.661 3.058 3.058 0 0 0-2.408-1.169h-.77a3.068 3.068 0 0 0-3.069 3.069v10.042a3.066 3.066 0 0 0 1.169 2.408 3.082 3.082 0 0 1-.661-1.9z" class="prefix__cls-10" data-name="Path 20480" transform="translate(-219.225 -151.684)"/>
            <path id="prefix__Path_20481" d="M254.449 196.41h-.77a3.068 3.068 0 0 1-3.069-3.069V183.3a3.068 3.068 0 0 1 3.069-3.069h.77a3.068 3.068 0 0 1 3.069 3.069v10.042a3.068 3.068 0 0 1-3.069 3.068z" class="prefix__cls-7" data-name="Path 20481" transform="translate(-200.84 -151.677)"/>
            <path id="prefix__Path_20482" d="M251.121 193.859v-10.042a3.068 3.068 0 0 1 3.069-3.069h.77a3.048 3.048 0 0 1 1.9.661 3.058 3.058 0 0 0-2.408-1.169h-.77a3.068 3.068 0 0 0-3.069 3.069v10.042a3.066 3.066 0 0 0 1.169 2.408 3.082 3.082 0 0 1-.661-1.9z" class="prefix__cls-8" data-name="Path 20482" transform="translate(-200.84 -151.684)"/>
            <path id="prefix__Path_20483" d="M372.079 196.41h-.77a3.068 3.068 0 0 1-3.069-3.069V183.3a3.068 3.068 0 0 1 3.069-3.069h.77a3.068 3.068 0 0 1 3.069 3.069v10.042a3.068 3.068 0 0 1-3.069 3.068z" data-name="Path 20483" transform="translate(-286.354 -151.677)"/>
            <path id="prefix__Path_20484" d="M368.751 193.859v-10.042a3.068 3.068 0 0 1 3.069-3.069h.77a3.048 3.048 0 0 1 1.9.661 3.058 3.058 0 0 0-2.408-1.169h-.77a3.068 3.068 0 0 0-3.069 3.069v10.042a3.066 3.066 0 0 0 1.169 2.408 3.082 3.082 0 0 1-.661-1.9z" class="prefix__cls-14" data-name="Path 20484" transform="translate(-286.354 -151.684)"/>
            <path id="prefix__Path_20485" d="M108.46 282.88h80.565v1.365H108.46z" class="prefix__cls-6" data-name="Path 20485" transform="translate(-97.501 -226.3)"/>
            <path id="prefix__Path_20486" d="M122.289 271.93h-.77a3.068 3.068 0 0 1-3.069-3.069v-10.042a3.068 3.068 0 0 1 3.069-3.069h.77a3.068 3.068 0 0 1 3.069 3.069v10.042a3.07 3.07 0 0 1-3.069 3.069z" class="prefix__cls-15" data-name="Path 20486" transform="translate(-104.763 -206.578)"/>
            <path id="prefix__Path_20487" d="M118.961 269.369v-10.042a3.068 3.068 0 0 1 3.069-3.069h.77a3.049 3.049 0 0 1 1.9.661 3.058 3.058 0 0 0-2.408-1.169h-.77a3.068 3.068 0 0 0-3.069 3.069v10.042a3.066 3.066 0 0 0 1.169 2.408 3.076 3.076 0 0 1-.661-1.9z" class="prefix__cls-16" data-name="Path 20487" transform="translate(-104.763 -206.578)"/>
            <path id="prefix__Path_20488" d="M216.509 271.93h-.77a3.068 3.068 0 0 1-3.069-3.069v-10.042a3.068 3.068 0 0 1 3.069-3.069h.77a3.068 3.068 0 0 1 3.069 3.069v10.042a3.07 3.07 0 0 1-3.069 3.069z" class="prefix__cls-15" data-name="Path 20488" transform="translate(-173.258 -206.578)"/>
            <path id="prefix__Path_20489" d="M213.181 269.369v-10.042a3.068 3.068 0 0 1 3.069-3.069h.77a3.049 3.049 0 0 1 1.9.661 3.058 3.058 0 0 0-2.408-1.169h-.77a3.068 3.068 0 0 0-3.069 3.069v10.042a3.066 3.066 0 0 0 1.169 2.408 3.076 3.076 0 0 1-.661-1.9z" class="prefix__cls-16" data-name="Path 20489" transform="translate(-173.258 -206.578)"/>
            <path id="prefix__Path_20490" d="M241.809 271.93h-.77a3.068 3.068 0 0 1-3.069-3.069v-10.042a3.068 3.068 0 0 1 3.069-3.069h.77a3.068 3.068 0 0 1 3.069 3.069v10.042a3.073 3.073 0 0 1-3.069 3.069z" data-name="Path 20490" transform="translate(-191.651 -206.578)"/>
            <path id="prefix__Path_20491" d="M238.471 269.369v-10.042a3.068 3.068 0 0 1 3.069-3.069h.77a3.049 3.049 0 0 1 1.9.661 3.058 3.058 0 0 0-2.408-1.169h-.77a3.068 3.068 0 0 0-3.069 3.069v10.042a3.066 3.066 0 0 0 1.169 2.408 3.076 3.076 0 0 1-.661-1.9z" class="prefix__cls-18" data-name="Path 20491" transform="translate(-191.644 -206.578)"/>
            <path id="prefix__Path_20492" d="M346.789 271.93h-.77a3.068 3.068 0 0 1-3.069-3.069v-10.042a3.068 3.068 0 0 1 3.069-3.069h.77a3.068 3.068 0 0 1 3.069 3.069v10.042a3.07 3.07 0 0 1-3.069 3.069z" class="prefix__cls-15" data-name="Path 20492" transform="translate(-267.968 -206.578)"/>
            <path id="prefix__Path_20493" d="M343.461 269.369v-10.042a3.068 3.068 0 0 1 3.069-3.069h.77a3.049 3.049 0 0 1 1.9.661 3.058 3.058 0 0 0-2.408-1.169h-.77a3.068 3.068 0 0 0-3.069 3.069v10.042a3.066 3.066 0 0 0 1.169 2.408 3.076 3.076 0 0 1-.661-1.9z" class="prefix__cls-19" data-name="Path 20493" transform="translate(-267.968 -206.578)"/>
            <path id="prefix__Path_20494" d="M321.5 271.93h-.77a3.068 3.068 0 0 1-3.069-3.069v-10.042a3.068 3.068 0 0 1 3.069-3.069h.77a3.068 3.068 0 0 1 3.069 3.069v10.042a3.072 3.072 0 0 1-3.069 3.069z" data-name="Path 20494" transform="translate(-249.583 -206.578)"/>
            <path id="prefix__Path_20495" d="M318.171 269.369v-10.042a3.068 3.068 0 0 1 3.069-3.069h.77a3.049 3.049 0 0 1 1.9.661 3.058 3.058 0 0 0-2.408-1.169h-.77a3.068 3.068 0 0 0-3.069 3.069v10.042a3.066 3.066 0 0 0 1.169 2.408 3.076 3.076 0 0 1-.661-1.9z" data-name="Path 20495" transform="translate(-249.583 -206.578)"/>
            <path id="prefix__Path_20496" d="M372.079 271.93h-.77a3.068 3.068 0 0 1-3.069-3.069v-10.042a3.068 3.068 0 0 1 3.069-3.069h.77a3.068 3.068 0 0 1 3.069 3.069v10.042a3.07 3.07 0 0 1-3.069 3.069z" data-name="Path 20496" transform="translate(-286.354 -206.578)"/>
            <path id="prefix__Path_20497" d="M368.751 269.369v-10.042a3.068 3.068 0 0 1 3.069-3.069h.77a3.049 3.049 0 0 1 1.9.661 3.058 3.058 0 0 0-2.408-1.169h-.77a3.068 3.068 0 0 0-3.069 3.069v10.042a3.066 3.066 0 0 0 1.169 2.408 3.076 3.076 0 0 1-.661-1.9z" class="prefix__cls-18" data-name="Path 20497" transform="translate(-286.354 -206.578)"/>
            <path id="prefix__Path_20498" d="M108.46 358.39h80.565v1.365H108.46z" class="prefix__cls-6" data-name="Path 20498" transform="translate(-97.501 -281.194)"/>
            <path id="prefix__Path_20499" d="M122.289 347.44h-.77a3.068 3.068 0 0 1-3.069-3.069v-10.042a3.068 3.068 0 0 1 3.069-3.069h.77a3.068 3.068 0 0 1 3.069 3.069v10.042a3.068 3.068 0 0 1-3.069 3.069z" class="prefix__cls-23" data-name="Path 20499" transform="translate(-104.763 -261.471)"/>
            <path id="prefix__Path_20500" d="M118.961 344.889v-10.042a3.068 3.068 0 0 1 3.069-3.069h.77a3.048 3.048 0 0 1 1.9.661 3.058 3.058 0 0 0-2.408-1.169h-.77a3.068 3.068 0 0 0-3.069 3.069v10.042a3.066 3.066 0 0 0 1.169 2.408 3.082 3.082 0 0 1-.661-1.9z" class="prefix__cls-8" data-name="Path 20500" transform="translate(-104.763 -261.479)"/>
            <path id="prefix__Path_20501" d="M147.589 347.44h-.77a3.068 3.068 0 0 1-3.069-3.069v-10.042a3.068 3.068 0 0 1 3.069-3.069h.77a3.068 3.068 0 0 1 3.069 3.069v10.042a3.072 3.072 0 0 1-3.069 3.069z" class="prefix__cls-24" data-name="Path 20501" transform="translate(-123.156 -261.471)"/>
            <path id="prefix__Path_20502" d="M144.251 344.889v-10.042a3.068 3.068 0 0 1 3.069-3.069h.77a3.049 3.049 0 0 1 1.9.661 3.058 3.058 0 0 0-2.408-1.169h-.77a3.068 3.068 0 0 0-3.069 3.069v10.042a3.066 3.066 0 0 0 1.169 2.408 3.082 3.082 0 0 1-.661-1.9z" class="prefix__cls-10" data-name="Path 20502" transform="translate(-123.148 -261.479)"/>
            <path id="prefix__Path_20503" d="M172.879 347.44h-.77a3.068 3.068 0 0 1-3.069-3.069v-10.042a3.068 3.068 0 0 1 3.069-3.069h.77a3.068 3.068 0 0 1 3.069 3.069v10.042a3.068 3.068 0 0 1-3.069 3.069z" class="prefix__cls-25" data-name="Path 20503" transform="translate(-141.541 -261.471)"/>
            <path id="prefix__Path_20504" d="M169.551 344.889v-10.042a3.068 3.068 0 0 1 3.069-3.069h.77a3.048 3.048 0 0 1 1.9.661 3.058 3.058 0 0 0-2.408-1.169h-.77a3.068 3.068 0 0 0-3.069 3.069v10.042a3.066 3.066 0 0 0 1.169 2.408 3.082 3.082 0 0 1-.661-1.9z" data-name="Path 20504" transform="translate(-141.541 -261.479)"/>
            <path id="prefix__Path_20505" d="M346.789 347.44h-.77a3.068 3.068 0 0 1-3.069-3.069v-10.042a3.068 3.068 0 0 1 3.069-3.069h.77a3.068 3.068 0 0 1 3.069 3.069v10.042a3.068 3.068 0 0 1-3.069 3.069z" class="prefix__cls-23" data-name="Path 20505" transform="translate(-267.968 -261.471)"/>
            <path id="prefix__Path_20506" d="M343.461 344.889v-10.042a3.068 3.068 0 0 1 3.069-3.069h.77a3.049 3.049 0 0 1 1.9.661 3.058 3.058 0 0 0-2.408-1.169h-.77a3.068 3.068 0 0 0-3.069 3.069v10.042a3.066 3.066 0 0 0 1.169 2.408 3.082 3.082 0 0 1-.661-1.9z" data-name="Path 20506" transform="translate(-267.968 -261.479)"/>
            <path id="prefix__Path_20507" d="M295.659 347.44h-.77a3.068 3.068 0 0 1-3.069-3.069v-10.042a3.068 3.068 0 0 1 3.069-3.069h.77a3.068 3.068 0 0 1 3.069 3.069v10.042a3.068 3.068 0 0 1-3.069 3.069z" class="prefix__cls-23" data-name="Path 20507" transform="translate(-230.798 -261.471)"/>
            <path id="prefix__Path_20508" d="M292.331 344.889v-10.042a3.068 3.068 0 0 1 3.069-3.069h.77a3.048 3.048 0 0 1 1.9.661 3.058 3.058 0 0 0-2.408-1.169h-.77a3.068 3.068 0 0 0-3.069 3.069v10.042a3.066 3.066 0 0 0 1.169 2.408 3.083 3.083 0 0 1-.661-1.9z" class="prefix__cls-8" data-name="Path 20508" transform="translate(-230.798 -261.479)"/>
            <path id="prefix__Path_20509" d="M372.079 347.44h-.77a3.068 3.068 0 0 1-3.069-3.069v-10.042a3.068 3.068 0 0 1 3.069-3.069h.77a3.068 3.068 0 0 1 3.069 3.069v10.042a3.068 3.068 0 0 1-3.069 3.069z" class="prefix__cls-28" data-name="Path 20509" transform="translate(-286.354 -261.471)"/>
            <path id="prefix__Path_20510" d="M368.751 344.889v-10.042a3.068 3.068 0 0 1 3.069-3.069h.77a3.048 3.048 0 0 1 1.9.661 3.058 3.058 0 0 0-2.408-1.169h-.77a3.068 3.068 0 0 0-3.069 3.069v10.042a3.066 3.066 0 0 0 1.169 2.408 3.082 3.082 0 0 1-.661-1.9z" class="prefix__cls-14" data-name="Path 20510" transform="translate(-286.354 -261.479)"/>
            <path id="prefix__Path_20511" d="M103.921 167.838H98.46V78.077a2.427 2.427 0 0 1 2.427-2.427h.609a2.427 2.427 0 0 1 2.427 2.427v89.761z" data-name="Path 20511" transform="translate(-90.231 -75.65)"/>
            <path id="prefix__Path_20512" d="M99.732 78.3a2.427 2.427 0 0 1 2.427-2.427h.355a2.407 2.407 0 0 0-1.018-.227h-.609a2.427 2.427 0 0 0-2.427 2.427v89.758h1.272z" data-name="Path 20512" transform="translate(-90.231 -75.65)"/>
            <path id="prefix__Path_20513" d="M399 167.838h-5.46V78.077a2.427 2.427 0 0 1 2.427-2.427h.609A2.427 2.427 0 0 1 399 78.077v89.761z" data-name="Path 20513" transform="translate(-304.746 -75.65)"/>
            <path id="prefix__Path_20514" d="M394.812 78.3a2.427 2.427 0 0 1 2.427-2.427h.355a2.407 2.407 0 0 0-1.018-.227h-.609a2.427 2.427 0 0 0-2.427 2.427v89.758h1.272z" data-name="Path 20514" transform="translate(-304.746 -75.65)"/>
            <path id="prefix__Path_20515" d="M122.289 120.9h-.77a3.068 3.068 0 0 1-3.069-3.069v-10.042a3.068 3.068 0 0 1 3.069-3.069h.77a3.068 3.068 0 0 1 3.069 3.069v10.042a3.07 3.07 0 0 1-3.069 3.069z" class="prefix__cls-23" data-name="Path 20515" transform="translate(-104.763 -96.783)"/>
            <path id="prefix__Path_20516" d="M118.961 118.339V108.3a3.068 3.068 0 0 1 3.069-3.069h.77a3.048 3.048 0 0 1 1.9.661 3.058 3.058 0 0 0-2.408-1.169h-.77a3.068 3.068 0 0 0-3.069 3.069v10.042a3.066 3.066 0 0 0 1.169 2.408 3.076 3.076 0 0 1-.661-1.903z" class="prefix__cls-16" data-name="Path 20516" transform="translate(-104.763 -96.783)"/>
            <path id="prefix__Path_20517" d="M147.589 120.9h-.77a3.068 3.068 0 0 1-3.069-3.069v-10.042a3.068 3.068 0 0 1 3.069-3.069h.77a3.068 3.068 0 0 1 3.069 3.069v10.042a3.073 3.073 0 0 1-3.069 3.069z" class="prefix__cls-24" data-name="Path 20517" transform="translate(-123.156 -96.783)"/>
            <path id="prefix__Path_20518" d="M144.251 118.339V108.3a3.068 3.068 0 0 1 3.069-3.069h.77a3.048 3.048 0 0 1 1.9.661 3.058 3.058 0 0 0-2.408-1.169h-.77a3.068 3.068 0 0 0-3.069 3.069v10.042a3.066 3.066 0 0 0 1.169 2.408 3.076 3.076 0 0 1-.661-1.903z" data-name="Path 20518" transform="translate(-123.148 -96.783)"/>
            <path id="prefix__Path_20519" d="M172.879 120.9h-.77a3.068 3.068 0 0 1-3.069-3.069v-10.042a3.068 3.068 0 0 1 3.069-3.069h.77a3.068 3.068 0 0 1 3.069 3.069v10.042a3.07 3.07 0 0 1-3.069 3.069z" class="prefix__cls-25" data-name="Path 20519" transform="translate(-141.541 -96.783)"/>
            <path id="prefix__Path_20520" d="M169.551 118.339V108.3a3.068 3.068 0 0 1 3.069-3.069h.77a3.048 3.048 0 0 1 1.9.661 3.058 3.058 0 0 0-2.408-1.169h-.77a3.068 3.068 0 0 0-3.069 3.069v10.042a3.066 3.066 0 0 0 1.169 2.408 3.076 3.076 0 0 1-.661-1.903z" data-name="Path 20520" transform="translate(-141.541 -96.783)"/>
            <path id="prefix__Path_20521" d="M346.789 120.9h-.77a3.068 3.068 0 0 1-3.069-3.069v-10.042a3.068 3.068 0 0 1 3.069-3.069h.77a3.068 3.068 0 0 1 3.069 3.069v10.042a3.07 3.07 0 0 1-3.069 3.069z" class="prefix__cls-23" data-name="Path 20521" transform="translate(-267.968 -96.783)"/>
            <path id="prefix__Path_20522" d="M343.461 118.339V108.3a3.068 3.068 0 0 1 3.069-3.069h.77a3.048 3.048 0 0 1 1.9.661 3.058 3.058 0 0 0-2.408-1.169h-.77a3.068 3.068 0 0 0-3.069 3.069v10.042a3.066 3.066 0 0 0 1.169 2.408 3.076 3.076 0 0 1-.661-1.903z" class="prefix__cls-19" data-name="Path 20522" transform="translate(-267.968 -96.783)"/>
            <path id="prefix__Path_20523" d="M295.659 120.9h-.77a3.068 3.068 0 0 1-3.069-3.069v-10.042a3.068 3.068 0 0 1 3.069-3.069h.77a3.068 3.068 0 0 1 3.069 3.069v10.042a3.07 3.07 0 0 1-3.069 3.069z" class="prefix__cls-23" data-name="Path 20523" transform="translate(-230.798 -96.783)"/>
            <path id="prefix__Path_20524" d="M292.331 118.339V108.3a3.068 3.068 0 0 1 3.069-3.069h.77a3.048 3.048 0 0 1 1.9.661 3.058 3.058 0 0 0-2.408-1.169h-.77a3.068 3.068 0 0 0-3.069 3.069v10.042a3.066 3.066 0 0 0 1.169 2.408 3.076 3.076 0 0 1-.661-1.903z" class="prefix__cls-16" data-name="Path 20524" transform="translate(-230.798 -96.783)"/>
            <path id="prefix__Path_20525" d="M372.079 120.9h-.77a3.068 3.068 0 0 1-3.069-3.069v-10.042a3.068 3.068 0 0 1 3.069-3.069h.77a3.068 3.068 0 0 1 3.069 3.069v10.042a3.07 3.07 0 0 1-3.069 3.069z" class="prefix__cls-28" data-name="Path 20525" transform="translate(-286.354 -96.783)"/>
            <path id="prefix__Path_20526" d="M368.751 118.339V108.3a3.068 3.068 0 0 1 3.069-3.069h.77a3.048 3.048 0 0 1 1.9.661 3.058 3.058 0 0 0-2.408-1.169h-.77a3.068 3.068 0 0 0-3.069 3.069v10.042a3.066 3.066 0 0 0 1.169 2.408 3.076 3.076 0 0 1-.661-1.903z" class="prefix__cls-18" data-name="Path 20526" transform="translate(-286.354 -96.783)"/>
        </g>
    </g>
</svg>
