<svg width="56" height="56" viewBox="0 0 56 56" fill="none" xmlns="http://www.w3.org/2000/svg">
<path d="M22.5 25H2.5C1.83696 25 1.20107 24.7366 0.732233 24.2678C0.263392 23.7989 0 23.163 0 22.5V2.5C0 1.83696 0.263392 1.20107 0.732233 0.732233C1.20107 0.263392 1.83696 0 2.5 0H22.5C23.163 0 23.7989 0.263392 24.2678 0.732233C24.7366 1.20107 25 1.83696 25 2.5V22.5C25 23.163 24.7366 23.7989 24.2678 24.2678C23.7989 24.7366 23.163 25 22.5 25V25ZM5 20H20V5H5V20Z" fill="#159957"/>
<path d="M53.5 25H33.5C32.837 25 32.2011 24.7366 31.7322 24.2678C31.2634 23.7989 31 23.163 31 22.5V2.5C31 1.83696 31.2634 1.20107 31.7322 0.732233C32.2011 0.263392 32.837 0 33.5 0H53.5C54.163 0 54.7989 0.263392 55.2678 0.732233C55.7366 1.20107 56 1.83696 56 2.5V22.5C56 23.163 55.7366 23.7989 55.2678 24.2678C54.7989 24.7366 54.163 25 53.5 25V25ZM36 20H51V5H36V20Z" fill="#159957"/>
<path d="M53.5 56H33.5C32.837 56 32.2011 55.7366 31.7322 55.2678C31.2634 54.7989 31 54.163 31 53.5V33.5C31 32.837 31.2634 32.2011 31.7322 31.7322C32.2011 31.2634 32.837 31 33.5 31H53.5C54.163 31 54.7989 31.2634 55.2678 31.7322C55.7366 32.2011 56 32.837 56 33.5V53.5C56 54.163 55.7366 54.7989 55.2678 55.2678C54.7989 55.7366 54.163 56 53.5 56V56ZM36 51H51V36H36V51Z" fill="#159957"/>
<path d="M22.5 56H2.5C1.83696 56 1.20107 55.7366 0.732233 55.2678C0.263392 54.7989 0 54.163 0 53.5V33.5C0 32.837 0.263392 32.2011 0.732233 31.7322C1.20107 31.2634 1.83696 31 2.5 31H22.5C23.163 31 23.7989 31.2634 24.2678 31.7322C24.7366 32.2011 25 32.837 25 33.5V53.5C25 54.163 24.7366 54.7989 24.2678 55.2678C23.7989 55.7366 23.163 56 22.5 56ZM5 51H20V36H5V51Z" fill="#159957"/>
</svg>
